<svg id="Layer_1" data-name="Layer 1" xmlns="http://www.w3.org/2000/svg" viewBox="0 0 384.43 384.43"><defs><style>.cls-1{fill:#0066b6;}.cls-2{fill:#fff;}</style></defs><rect class="cls-1" width="384.43" height="384.43"/><path class="cls-2" d="M166.4,140.66a48.87,48.87,0,0,1-2.52,16.13,27.19,27.19,0,0,1-8.79,12.36q-6.27,5.13-17.29,8t-28,2.9q-16.82,0-27.73-2.9t-17.19-8a26.56,26.56,0,0,1-8.7-12.36,50.82,50.82,0,0,1-2.41-16.13v-31.3c0-2.45.54-4.22,1.64-5.32s2.87-1.64,5.31-1.64h28c2.44,0,4.22.55,5.31,1.64s1.64,2.87,1.64,5.32v23.57a9.16,9.16,0,0,0,2.42,6.47q2.41,2.61,11.3,2.61,8.31,0,10.53-2.61a9.63,9.63,0,0,0,2.22-6.47V45q0-3.68,1.64-5.31t5.32-1.65h30.33q3.67,0,5.31,1.65T166.4,45Z"/><path class="cls-2" d="M250.93,170.22c0,2.44-.55,4.22-1.64,5.31s-2.87,1.64-5.32,1.64h-28.4q-3.67,0-5.31-1.64c-1.1-1.09-1.64-2.87-1.64-5.31v-51a57.31,57.31,0,0,1,1.83-13.33,147.19,147.19,0,0,1,5.7-17.58L233,44.44a9,9,0,0,1,3.58-4.83,11.44,11.44,0,0,1,6.27-1.55h52a11.09,11.09,0,0,1,6.08,1.55,9.1,9.1,0,0,1,3.58,4.83L321.26,88.3a149,149,0,0,1,5.7,17.58,57.31,57.31,0,0,1,1.83,13.33v51c0,2.44-.55,4.22-1.64,5.31s-2.87,1.64-5.31,1.64H292.66q-3.87,0-5.7-1.64c-1.22-1.09-1.83-2.87-1.83-5.31V143.17h-34.2Zm11-91.58L252.86,108h30.33l-9.08-29.36a7.35,7.35,0,0,0-1.64-2.52,3,3,0,0,0-2-.77h-4.83a3,3,0,0,0-2,.77A7.35,7.35,0,0,0,261.94,78.64Z"/><path class="cls-2" d="M140.31,346.37H66.12q-3.68,0-5.31-1.65c-1.1-1.09-1.64-2.86-1.64-5.31V214.21c0-2.44.54-4.21,1.64-5.31s2.86-1.64,5.31-1.64h61.64q18.93,0,28,7.24t9.08,22.32v9.27q0,8.11-2.8,13.24a17.24,17.24,0,0,1-8.6,7.63q12.36,1.16,18.36,8.5t6,21.44v17.78q0,16.23-9.18,24T140.31,346.37ZM102.64,240.1V261h16.42a7.26,7.26,0,0,0,5.51-1.93q1.83-1.94,1.83-5.8v-5.41c0-2.57-.61-4.51-1.83-5.8a7.3,7.3,0,0,0-5.51-1.93Zm0,50.62v22.8h25.12a7.23,7.23,0,0,0,5.5-1.93c1.22-1.29,1.84-3.22,1.84-5.8v-7.53c0-2.58-.62-4.48-1.84-5.7s-3.06-1.84-5.5-1.84Z"/><path class="cls-2" d="M315.27,346.37H225.62q-3.68,0-5.31-1.65t-1.65-5.31V214.21q0-3.66,1.65-5.31t5.31-1.64h89.65q3.66,0,5.31,1.64t1.64,5.31v22.61q0,3.68-1.64,5.31c-1.1,1.1-2.87,1.64-5.31,1.64H261.94v14.88h37.68q3.66,0,5.31,1.64t1.64,5.32v20.67q0,3.68-1.64,5.31c-1.1,1.1-2.87,1.64-5.31,1.64H261.94v16.62h53.33q3.66,0,5.31,1.64t1.64,5.31v22.61q0,3.68-1.64,5.31T315.27,346.37Z"/></svg>